<mxfile host="app.diagrams.net" modified="2022-12-24T18:10:28.536Z" agent="5.0 (Windows NT 10.0; Win64; x64) AppleWebKit/537.36 (KHTML, like Gecko) Chrome/108.0.0.0 Safari/537.36 Edg/108.0.1462.54" version="20.7.4" etag="w2LCFsR95IYKQ51JjQHn" type="github">
  <diagram id="DYEwAd0FXtR8L2iEkwV9" name="Page-1">
    <mxGraphModel dx="1725" dy="458" grid="1" gridSize="10" guides="1" tooltips="1" connect="1" arrows="1" fold="1" page="1" pageScale="1" pageWidth="850" pageHeight="1100" math="0" shadow="0">
      <root>
        <mxCell id="0" />
        <mxCell id="1" parent="0" />
        <mxCell id="c-NwQK7uivU0Sarzc9AO-45" value="" style="rounded=0;whiteSpace=wrap;html=1;fontSize=12;" vertex="1" parent="1">
          <mxGeometry x="680" y="310" width="90" height="50" as="geometry" />
        </mxCell>
        <mxCell id="c-NwQK7uivU0Sarzc9AO-1" value="" style="rounded=0;whiteSpace=wrap;html=1;" vertex="1" parent="1">
          <mxGeometry x="110" y="160" width="220" height="160" as="geometry" />
        </mxCell>
        <mxCell id="c-NwQK7uivU0Sarzc9AO-2" value="" style="shape=trapezoid;perimeter=trapezoidPerimeter;whiteSpace=wrap;html=1;fixedSize=1;rotation=-90;" vertex="1" parent="1">
          <mxGeometry x="240" y="220" width="100" height="40" as="geometry" />
        </mxCell>
        <mxCell id="c-NwQK7uivU0Sarzc9AO-3" value="" style="shape=trapezoid;perimeter=trapezoidPerimeter;whiteSpace=wrap;html=1;fixedSize=1;rotation=90;" vertex="1" parent="1">
          <mxGeometry x="100" y="220" width="100" height="40" as="geometry" />
        </mxCell>
        <mxCell id="c-NwQK7uivU0Sarzc9AO-13" value="" style="endArrow=classic;html=1;rounded=0;" edge="1" parent="1">
          <mxGeometry width="50" height="50" relative="1" as="geometry">
            <mxPoint x="180" y="220" as="sourcePoint" />
            <mxPoint x="260" y="230" as="targetPoint" />
            <Array as="points">
              <mxPoint x="220" y="210" />
            </Array>
          </mxGeometry>
        </mxCell>
        <mxCell id="c-NwQK7uivU0Sarzc9AO-14" value="" style="endArrow=classic;html=1;rounded=0;startArrow=none;" edge="1" parent="1">
          <mxGeometry width="50" height="50" relative="1" as="geometry">
            <mxPoint x="260" y="270" as="sourcePoint" />
            <mxPoint x="180" y="270" as="targetPoint" />
            <Array as="points">
              <mxPoint x="220" y="280" />
            </Array>
          </mxGeometry>
        </mxCell>
        <mxCell id="c-NwQK7uivU0Sarzc9AO-17" value="Loss" style="text;html=1;strokeColor=none;fillColor=none;align=center;verticalAlign=middle;whiteSpace=wrap;rounded=0;" vertex="1" parent="1">
          <mxGeometry x="190" y="280" width="60" height="30" as="geometry" />
        </mxCell>
        <mxCell id="c-NwQK7uivU0Sarzc9AO-18" value="&lt;font style=&quot;font-size: 20px;&quot;&gt;&lt;b&gt;G&lt;/b&gt;&lt;/font&gt;" style="text;html=1;strokeColor=none;fillColor=none;align=center;verticalAlign=middle;whiteSpace=wrap;rounded=0;" vertex="1" parent="1">
          <mxGeometry x="120" y="225" width="60" height="30" as="geometry" />
        </mxCell>
        <mxCell id="c-NwQK7uivU0Sarzc9AO-19" value="&lt;span style=&quot;font-size: 20px;&quot;&gt;&lt;b&gt;D&lt;/b&gt;&lt;/span&gt;" style="text;html=1;strokeColor=none;fillColor=none;align=center;verticalAlign=middle;whiteSpace=wrap;rounded=0;" vertex="1" parent="1">
          <mxGeometry x="260" y="225" width="60" height="30" as="geometry" />
        </mxCell>
        <mxCell id="c-NwQK7uivU0Sarzc9AO-20" value="Stage 1: GAN" style="text;html=1;strokeColor=none;fillColor=none;align=center;verticalAlign=middle;whiteSpace=wrap;rounded=0;fontSize=20;" vertex="1" parent="1">
          <mxGeometry x="150" y="330" width="140" height="30" as="geometry" />
        </mxCell>
        <mxCell id="c-NwQK7uivU0Sarzc9AO-23" value="" style="verticalLabelPosition=bottom;verticalAlign=top;html=1;shape=mxgraph.basic.layered_rect;dx=10;outlineConnect=0;whiteSpace=wrap;fontSize=20;" vertex="1" parent="1">
          <mxGeometry x="370" y="215" width="70" height="50" as="geometry" />
        </mxCell>
        <mxCell id="c-NwQK7uivU0Sarzc9AO-24" value="&lt;font style=&quot;font-size: 16px;&quot;&gt;Synthetic Images&lt;/font&gt;" style="text;html=1;strokeColor=none;fillColor=none;align=center;verticalAlign=middle;whiteSpace=wrap;rounded=0;fontSize=20;" vertex="1" parent="1">
          <mxGeometry x="340" y="265" width="130" height="30" as="geometry" />
        </mxCell>
        <mxCell id="c-NwQK7uivU0Sarzc9AO-25" value="" style="endArrow=classic;html=1;rounded=0;fontSize=16;exitX=1;exitY=0.5;exitDx=0;exitDy=0;" edge="1" parent="1" source="c-NwQK7uivU0Sarzc9AO-1">
          <mxGeometry width="50" height="50" relative="1" as="geometry">
            <mxPoint x="340" y="240" as="sourcePoint" />
            <mxPoint x="360" y="240" as="targetPoint" />
          </mxGeometry>
        </mxCell>
        <mxCell id="c-NwQK7uivU0Sarzc9AO-26" value="" style="verticalLabelPosition=bottom;verticalAlign=top;html=1;shape=mxgraph.basic.layered_rect;dx=10;outlineConnect=0;whiteSpace=wrap;fontSize=20;" vertex="1" parent="1">
          <mxGeometry x="10" y="215" width="70" height="50" as="geometry" />
        </mxCell>
        <mxCell id="c-NwQK7uivU0Sarzc9AO-27" value="&lt;span style=&quot;font-size: 16px;&quot;&gt;Samples&lt;/span&gt;" style="text;html=1;strokeColor=none;fillColor=none;align=center;verticalAlign=middle;whiteSpace=wrap;rounded=0;fontSize=20;" vertex="1" parent="1">
          <mxGeometry x="-20" y="265" width="130" height="30" as="geometry" />
        </mxCell>
        <mxCell id="c-NwQK7uivU0Sarzc9AO-28" value="" style="endArrow=classic;html=1;rounded=0;fontSize=16;" edge="1" parent="1" source="c-NwQK7uivU0Sarzc9AO-26">
          <mxGeometry width="50" height="50" relative="1" as="geometry">
            <mxPoint x="90" y="240" as="sourcePoint" />
            <mxPoint x="110" y="240" as="targetPoint" />
          </mxGeometry>
        </mxCell>
        <mxCell id="c-NwQK7uivU0Sarzc9AO-29" value="" style="rounded=0;whiteSpace=wrap;html=1;fontSize=16;" vertex="1" parent="1">
          <mxGeometry x="460" y="380" width="330" height="160" as="geometry" />
        </mxCell>
        <mxCell id="c-NwQK7uivU0Sarzc9AO-30" value="" style="shape=flexArrow;endArrow=classic;html=1;rounded=0;fontSize=16;endWidth=10;endSize=6.7250000000000005;" edge="1" parent="1">
          <mxGeometry width="50" height="50" relative="1" as="geometry">
            <mxPoint x="450" y="240" as="sourcePoint" />
            <mxPoint x="490" y="240" as="targetPoint" />
          </mxGeometry>
        </mxCell>
        <mxCell id="c-NwQK7uivU0Sarzc9AO-31" value="" style="verticalLabelPosition=bottom;verticalAlign=top;html=1;shape=mxgraph.basic.layered_rect;dx=10;outlineConnect=0;whiteSpace=wrap;fontSize=20;" vertex="1" parent="1">
          <mxGeometry x="510" y="170" width="40" height="30" as="geometry" />
        </mxCell>
        <mxCell id="c-NwQK7uivU0Sarzc9AO-32" value="" style="verticalLabelPosition=bottom;verticalAlign=top;html=1;shape=mxgraph.basic.layered_rect;dx=10;outlineConnect=0;whiteSpace=wrap;fontSize=20;" vertex="1" parent="1">
          <mxGeometry x="515" y="250" width="40" height="30" as="geometry" />
        </mxCell>
        <mxCell id="c-NwQK7uivU0Sarzc9AO-33" value="&lt;span style=&quot;font-size: 12px;&quot;&gt;Synthetic&lt;/span&gt;" style="text;html=1;strokeColor=none;fillColor=none;align=center;verticalAlign=middle;whiteSpace=wrap;rounded=0;fontSize=16;" vertex="1" parent="1">
          <mxGeometry x="515" y="285" width="50" height="10" as="geometry" />
        </mxCell>
        <mxCell id="c-NwQK7uivU0Sarzc9AO-34" value="&lt;span style=&quot;font-size: 12px;&quot;&gt;Real&lt;/span&gt;" style="text;html=1;strokeColor=none;fillColor=none;align=center;verticalAlign=middle;whiteSpace=wrap;rounded=0;fontSize=16;" vertex="1" parent="1">
          <mxGeometry x="520" y="205" width="30" height="10" as="geometry" />
        </mxCell>
        <mxCell id="c-NwQK7uivU0Sarzc9AO-35" value="" style="shape=image;html=1;verticalAlign=top;verticalLabelPosition=bottom;labelBackgroundColor=#ffffff;imageAspect=0;aspect=fixed;image=https://cdn4.iconfinder.com/data/icons/ionicons/512/icon-ios7-plus-empty-128.png;fontSize=12;" vertex="1" parent="1">
          <mxGeometry x="515" y="220" width="30" height="30" as="geometry" />
        </mxCell>
        <mxCell id="c-NwQK7uivU0Sarzc9AO-39" value="" style="endArrow=classic;html=1;rounded=0;fontSize=12;" edge="1" parent="1">
          <mxGeometry width="50" height="50" relative="1" as="geometry">
            <mxPoint x="560" y="240" as="sourcePoint" />
            <mxPoint x="590" y="240" as="targetPoint" />
          </mxGeometry>
        </mxCell>
        <mxCell id="c-NwQK7uivU0Sarzc9AO-40" value="" style="shape=trapezoid;perimeter=trapezoidPerimeter;whiteSpace=wrap;html=1;fixedSize=1;fontSize=12;rotation=90;" vertex="1" parent="1">
          <mxGeometry x="585" y="215" width="90" height="50" as="geometry" />
        </mxCell>
        <mxCell id="c-NwQK7uivU0Sarzc9AO-41" value="Yolo" style="text;html=1;strokeColor=none;fillColor=none;align=center;verticalAlign=middle;whiteSpace=wrap;rounded=0;fontSize=12;" vertex="1" parent="1">
          <mxGeometry x="600" y="225" width="60" height="30" as="geometry" />
        </mxCell>
        <mxCell id="c-NwQK7uivU0Sarzc9AO-43" value="" style="endArrow=classic;html=1;rounded=0;fontSize=12;" edge="1" parent="1">
          <mxGeometry width="50" height="50" relative="1" as="geometry">
            <mxPoint x="670" y="240" as="sourcePoint" />
            <mxPoint x="700" y="240" as="targetPoint" />
          </mxGeometry>
        </mxCell>
        <mxCell id="c-NwQK7uivU0Sarzc9AO-44" value="" style="endArrow=classic;html=1;rounded=0;fontSize=12;" edge="1" parent="1">
          <mxGeometry width="50" height="50" relative="1" as="geometry">
            <mxPoint x="670" y="240" as="sourcePoint" />
            <mxPoint x="700" y="240" as="targetPoint" />
            <Array as="points">
              <mxPoint x="680" y="240" />
            </Array>
          </mxGeometry>
        </mxCell>
        <mxCell id="c-NwQK7uivU0Sarzc9AO-46" value="" style="endArrow=none;dashed=1;html=1;dashPattern=1 3;strokeWidth=2;rounded=0;fontSize=12;" edge="1" parent="1">
          <mxGeometry width="50" height="50" relative="1" as="geometry">
            <mxPoint x="720" y="260" as="sourcePoint" />
            <mxPoint x="750" y="260" as="targetPoint" />
          </mxGeometry>
        </mxCell>
        <mxCell id="c-NwQK7uivU0Sarzc9AO-47" value="" style="endArrow=none;dashed=1;html=1;dashPattern=1 3;strokeWidth=2;rounded=0;fontSize=12;" edge="1" parent="1">
          <mxGeometry width="50" height="50" relative="1" as="geometry">
            <mxPoint x="720" y="260" as="sourcePoint" />
            <mxPoint x="750" y="240" as="targetPoint" />
            <Array as="points">
              <mxPoint x="720" y="240" />
            </Array>
          </mxGeometry>
        </mxCell>
      </root>
    </mxGraphModel>
  </diagram>
</mxfile>
